<svg width="18" height="18" viewBox="0 0 18 18" fill="none" xmlns="http://www.w3.org/2000/svg">
<path d="M1 17.7982C0.447715 17.7982 0 17.3504 0 16.7982V6.33334C0 5.99899 0.167101 5.68676 0.4453 5.50129L8.4453 0.167957C8.7812 -0.0559757 9.2188 -0.0559761 9.5547 0.167957L17.5547 5.50129C17.8329 5.68676 18 5.99899 18 6.33334V16.7982C18 17.3504 17.5523 17.7982 17 17.7982H12.25C11.6977 17.7982 11.25 17.3504 11.25 16.7982V14.7982V12.7982C11.25 12.2459 10.8023 11.7982 10.25 11.7982H7.75C7.19772 11.7982 6.75 12.2459 6.75 12.7982V14.7982V16.7982C6.75 17.3504 6.30228 17.7982 5.75 17.7982H1Z" fill="#E8E8F2"/>
</svg>
